<?xml version="1.0" encoding="UTF-8" standalone="no"?>
<!-- Created with Inkscape (http://www.inkscape.org/) -->

<svg
   xmlns:dc="http://purl.org/dc/elements/1.1/"
   xmlns:cc="http://creativecommons.org/ns#"
   xmlns:rdf="http://www.w3.org/1999/02/22-rdf-syntax-ns#"
   xmlns:svg="http://www.w3.org/2000/svg"
   xmlns="http://www.w3.org/2000/svg"
   xmlns:sodipodi="http://sodipodi.sourceforge.net/DTD/sodipodi-0.dtd"
   xmlns:inkscape="http://www.inkscape.org/namespaces/inkscape"
   width="30.233158mm"
   height="30.241165mm"
   viewBox="0 0 30.233158 30.241165"
   version="1.1"
   id="svg2855"
   inkscape:version="0.92.3 (2405546, 2018-03-11)"
   sodipodi:docname="doctor.svg">
  <defs
     id="defs2849">
    <clipPath
       clipPathUnits="userSpaceOnUse"
       id="clipPath284">
      <path
         d="M 71.2603,414.763 H 129.39 V 355.928 H 71.2603 Z"
         id="path282"
         inkscape:connector-curvature="0" />
    </clipPath>
    <clipPath
       clipPathUnits="userSpaceOnUse"
       id="clipPath308">
      <path
         d="M 90.4834,414.765 H 113.129 V 387.279 H 90.4834 Z"
         id="path306"
         inkscape:connector-curvature="0" />
    </clipPath>
    <clipPath
       clipPathUnits="userSpaceOnUse"
       id="clipPath324">
      <path
         d="M 71.2578,395.541 H 98.7432 V 372.894 H 71.2578 Z"
         id="path322"
         inkscape:connector-curvature="0" />
    </clipPath>
    <clipPath
       clipPathUnits="userSpaceOnUse"
       id="clipPath32">
      <path
         d="m 172.846,419.929 h 63.413 v -64.416 h -63.413 z"
         id="path30"
         inkscape:connector-curvature="0" />
    </clipPath>
    <clipPath
       clipPathUnits="userSpaceOnUse"
       id="clipPath68">
      <path
         d="m 194.249,389.167 h 2.419 v -6.976 h -2.419 z"
         id="path66"
         inkscape:connector-curvature="0" />
    </clipPath>
    <clipPath
       clipPathUnits="userSpaceOnUse"
       id="clipPath88">
      <path
         d="m 182.895,419.764 h 13.774 v -34.621 h -13.774 z"
         id="path86"
         inkscape:connector-curvature="0" />
    </clipPath>
    <clipPath
       clipPathUnits="userSpaceOnUse"
       id="clipPath116">
      <path
         d="m 180.474,403.877 h 4.84 v -4.839 h -4.84 z"
         id="path114"
         inkscape:connector-curvature="0" />
    </clipPath>
  </defs>
  <sodipodi:namedview
     id="base"
     pagecolor="#ffffff"
     bordercolor="#666666"
     borderopacity="1.0"
     inkscape:pageopacity="0.0"
     inkscape:pageshadow="2"
     inkscape:zoom="0.35"
     inkscape:cx="-524.29971"
     inkscape:cy="-188.56564"
     inkscape:document-units="mm"
     inkscape:current-layer="layer1"
     showgrid="false"
     fit-margin-top="1"
     fit-margin-right="1"
     fit-margin-bottom="1"
     fit-margin-left="1"
     inkscape:window-width="1853"
     inkscape:window-height="1025"
     inkscape:window-x="67"
     inkscape:window-y="27"
     inkscape:window-maximized="1" />
  <metadata
     id="metadata2852">
    <rdf:RDF>
      <cc:Work
         rdf:about="">
        <dc:format>image/svg+xml</dc:format>
        <dc:type
           rdf:resource="http://purl.org/dc/dcmitype/StillImage" />
        <dc:title></dc:title>
      </cc:Work>
    </rdf:RDF>
  </metadata>
  <g
     inkscape:label="Capa 1"
     inkscape:groupmode="layer"
     id="layer1"
     transform="translate(-72.575131,-68.700841)">
    <g
       transform="matrix(0.35277777,0,0,-0.35277777,18.348618,223.35909)"
       id="g3537">
      <g
         transform="translate(236.5786,395.5347)"
         id="g22">
        <path
           inkscape:connector-curvature="0"
           id="path24"
           style="fill:#f68a65;fill-opacity:1;fill-rule:nonzero;stroke:none"
           d="m 0,0 c 0,-0.267 0,-0.533 -0.011,-0.799 -0.032,-1.442 -0.127,-2.849 -0.308,-4.246 -2.284,-18.24 -16.854,-32.662 -35.168,-34.709 -0.747,-0.097 -1.515,-0.15 -2.273,-0.192 -0.746,-0.053 -1.493,-0.075 -2.25,-0.075 -2.229,0 -4.416,0.181 -6.549,0.534 -18.997,3.125 -33.472,19.614 -33.472,39.487 0,22.101 17.91,40.032 40.021,40.032 21.44,0 38.955,-16.886 39.967,-38.08 C -0.011,1.301 0,0.651 0,0" />
      </g>
      <g
         id="g26">
        <g
           id="g28" />
        <g
           id="g40">
          <g
             style="opacity:0.39999402"
             id="g38"
             clip-path="url(#clipPath32)">
            <g
               id="g36"
               transform="translate(236.2593,390.4897)">
              <path
                 inkscape:connector-curvature="0"
                 id="path34"
                 style="fill:#f68a65;fill-opacity:1;fill-rule:nonzero;stroke:none"
                 d="m 0,0 c -2.283,-18.24 -16.854,-32.662 -35.168,-34.709 -0.747,-0.097 -1.515,-0.15 -2.272,-0.192 -0.747,-0.053 -1.494,-0.076 -2.251,-0.076 -2.228,0 -4.416,0.182 -6.549,0.535 l -17.174,17.184 33.984,46.697 z" />
            </g>
          </g>
        </g>
      </g>
      <g
         transform="translate(220.4946,373.228)"
         id="g42">
        <path
           inkscape:connector-curvature="0"
           id="path44"
           style="fill:#ffffff;fill-opacity:1;fill-rule:nonzero;stroke:none"
           d="M 0,0 C 0,9.054 -5.048,16.924 -12.472,20.958 L -16.194,0" />
      </g>
      <g
         transform="translate(189.0371,373.228)"
         id="g46">
        <path
           inkscape:connector-curvature="0"
           id="path48"
           style="fill:#ffffff;fill-opacity:1;fill-rule:nonzero;stroke:none"
           d="M 0,0 -3.723,20.959 C -3.939,20.839 -4.155,20.721 -4.371,20.593 -4.75,20.371 -5.13,20.133 -5.503,19.887 -11.942,15.621 -16.194,8.309 -16.194,0" />
      </g>
      <g
         transform="translate(208.0229,394.1865)"
         id="g50">
        <path
           inkscape:connector-curvature="0"
           id="path52"
           style="fill:#4ab9c5;fill-opacity:1;fill-rule:nonzero;stroke:none"
           d="m 0,0 -3.723,-20.958 h -15.263 l -3.723,20.959 c 3.38,1.824 7.245,2.865 11.355,2.865 C -7.246,2.866 -3.38,1.825 0,0" />
      </g>
      <g
         transform="translate(199.4893,373.228)"
         id="g54">
        <path
           inkscape:connector-curvature="0"
           id="path56"
           style="fill:#3c596d;fill-opacity:1;fill-rule:nonzero;stroke:none"
           d="m 0,0 h -5.644 c 0.104,4.49 0.678,7.841 1.282,10.186 0.743,2.926 1.542,4.265 1.542,4.265 0,0 0.795,-1.339 1.541,-4.265 C -0.677,7.84 -0.103,4.49 0,0" />
      </g>
      <g
         transform="translate(196.6685,389.1665)"
         id="g58">
        <path
           inkscape:connector-curvature="0"
           id="path60"
           style="fill:#59839b;fill-opacity:1;fill-rule:nonzero;stroke:none"
           d="m 0,0 c 0,0 -2.42,-1.145 -2.419,-3.488 0,-2.343 0.671,-3.489 2.419,-3.488 1.749,0 2.42,1.145 2.42,3.488 C 2.42,-1.145 0,0 0,0" />
      </g>
      <g
         id="g62">
        <g
           id="g64" />
        <g
           id="g76">
          <g
             style="opacity:0.19999701"
             id="g74"
             clip-path="url(#clipPath68)">
            <g
               id="g72"
               transform="translate(196.6685,389.1665)">
              <path
                 inkscape:connector-curvature="0"
                 id="path70"
                 style="fill:#59839b;fill-opacity:1;fill-rule:nonzero;stroke:none"
                 d="m 0,0 c 0,0 -2.42,-1.145 -2.419,-3.488 0,-2.343 0.671,-3.489 2.419,-3.488 z" />
            </g>
          </g>
        </g>
      </g>
      <g
         transform="translate(196.6689,419.7617)"
         id="g78">
        <path
           inkscape:connector-curvature="0"
           id="path80"
           style="fill:#f1dbcb;fill-opacity:1;fill-rule:nonzero;stroke:none"
           d="m 0,0 c -7.609,0 -13.774,-6.165 -13.774,-13.774 v -7.072 c 0,-7.602 6.165,-13.775 13.774,-13.775 4.541,0 8.57,2.204 11.069,5.592 0.196,0.252 0.367,0.507 0.53,0.766 1.378,2.145 2.174,4.691 2.174,7.417 v 7.073 C 13.775,-6.165 7.608,0 0,0" />
      </g>
      <g
         id="g82">
        <g
           id="g84" />
        <g
           id="g96">
          <g
             style="opacity:0.19999701"
             id="g94"
             clip-path="url(#clipPath88)">
            <g
               id="g92"
               transform="translate(196.6689,419.7637)">
              <path
                 inkscape:connector-curvature="0"
                 id="path90"
                 style="fill:#f5e0cd;fill-opacity:1;fill-rule:nonzero;stroke:none"
                 d="m 0,0 c -7.608,0 -13.774,-6.167 -13.774,-13.774 v -7.074 c 0,-7.606 6.166,-13.773 13.774,-13.773 z" />
            </g>
          </g>
        </g>
      </g>
      <g
         transform="translate(196.6689,423.5132)"
         id="g98">
        <path
           inkscape:connector-curvature="0"
           id="path100"
           style="fill:#9c7761;fill-opacity:1;fill-rule:nonzero;stroke:none"
           d="m 0,0 c -2.886,0.002 -17.249,0.405 -13.774,-23.421 0,0 0.248,8.495 4.962,8.497 4.717,-0.002 2.762,-2.013 8.812,-2.013 6.048,0 4.094,2.011 8.809,2.013 4.715,0 4.964,-8.497 4.964,-8.497 C 17.249,0.404 2.884,0 0,0" />
      </g>
      <g
         transform="translate(212.8608,401.4575)"
         id="g102">
        <path
           inkscape:connector-curvature="0"
           id="path104"
           style="fill:#f1dbcb;fill-opacity:1;fill-rule:nonzero;stroke:none"
           d="M 0,0 C 0,-1.336 -1.084,-2.419 -2.418,-2.419 -3.755,-2.42 -4.838,-1.336 -4.838,0 -4.836,1.337 -3.755,2.42 -2.418,2.42 -1.084,2.42 0.002,1.336 0,0" />
      </g>
      <g
         transform="translate(185.314,401.4575)"
         id="g106">
        <path
           inkscape:connector-curvature="0"
           id="path108"
           style="fill:#f1dbcb;fill-opacity:1;fill-rule:nonzero;stroke:none"
           d="m 0,0 c 0,-1.336 -1.083,-2.42 -2.419,-2.42 -1.337,0 -2.421,1.084 -2.421,2.42 0,1.337 1.084,2.42 2.421,2.42 C -1.083,2.42 0,1.337 0,0" />
      </g>
      <g
         id="g110">
        <g
           id="g112" />
        <g
           id="g124">
          <g
             style="opacity:0.19999701"
             id="g122"
             clip-path="url(#clipPath116)">
            <g
               id="g120"
               transform="translate(185.314,401.4575)">
              <path
                 inkscape:connector-curvature="0"
                 id="path118"
                 style="fill:#f5e0cd;fill-opacity:1;fill-rule:nonzero;stroke:none"
                 d="m 0,0 c 0,-1.336 -1.083,-2.42 -2.419,-2.42 -1.337,0 -2.421,1.084 -2.421,2.42 0,1.337 1.084,2.42 2.421,2.42 C -1.083,2.42 0,1.337 0,0" />
            </g>
          </g>
        </g>
      </g>
      <g
         transform="translate(184.2563,392.9214)"
         id="g126">
        <path
           inkscape:connector-curvature="0"
           id="path128"
           style="fill:#58595b;fill-opacity:1;fill-rule:nonzero;stroke:none"
           d="m 0,0 c -2.553,-6.209 -1.027,-14.69 -0.998,-14.816 l -0.729,-0.142 c -0.022,0.127 -1.579,8.704 1.005,15.151 0.165,0.104 0.328,0.209 0.492,0.321 z" />
      </g>
      <g
         transform="translate(209.1313,373.1611)"
         id="g130">
        <path
           inkscape:connector-curvature="0"
           id="path132"
           style="fill:#58595b;fill-opacity:1;fill-rule:nonzero;stroke:none"
           d="m 0,0 -0.729,0.134 c 1.682,8.771 0.55,14.34 -0.664,17.437 0.195,0.253 0.367,0.507 0.53,0.766 C 0.469,15.24 1.809,9.449 0,0" />
      </g>
      <g
         transform="translate(185.314,378.0352)"
         id="g134">
        <path
           inkscape:connector-curvature="0"
           id="path136"
           style="fill:#98c8ce;fill-opacity:1;fill-rule:nonzero;stroke:none"
           d="m 0,0 c 0,-1.337 -1.083,-2.42 -2.419,-2.42 -1.337,0 -2.421,1.083 -2.421,2.42 0,1.335 1.084,2.419 2.421,2.419 C -1.083,2.419 0,1.335 0,0" />
      </g>
      <g
         transform="translate(184.6025,378.0352)"
         id="g138">
        <path
           inkscape:connector-curvature="0"
           id="path140"
           style="fill:#58595b;fill-opacity:1;fill-rule:nonzero;stroke:none"
           d="m 0,0 c -0.001,-0.943 -0.766,-1.708 -1.708,-1.708 -0.942,0 -1.708,0.765 -1.708,1.708 0,0.942 0.765,1.707 1.708,1.707 C -0.765,1.707 0,0.942 0,0" />
      </g>
    </g>
  </g>
</svg>
